<svg width="62" height="62" viewBox="0 0 62 62" fill="none" xmlns="http://www.w3.org/2000/svg">
<g clip-path="url(#clip0_17_31)">
<path d="M68.2008 -6.20001H-6.19922V68.2H68.2008V-6.20001Z" fill="white"/>
<path d="M68.2008 -6.20001H-6.19922V68.2H68.2008V-6.20001Z" fill="#058789"/>
<path d="M43.4115 27.3394C46.2635 27.3394 48.5781 25.0228 48.5781 22.1682C48.5781 19.3104 46.2635 16.9938 43.4115 16.9938C40.5562 16.9938 38.2441 19.3104 38.2441 22.1682C38.2441 25.0228 40.5562 27.3394 43.4115 27.3394Z" fill="#E03F3E"/>
<path d="M43.7683 3.72195C42.87 3.68901 41.9619 3.71872 41.0597 3.81753C53.5191 6.62755 53.3105 19.3376 51.5784 24.1348C51.5694 24.1619 51.5571 24.1916 51.5487 24.2188C50.7931 26.2816 49.5505 28.511 47.6123 29.6799C45.0019 31.2493 41.5822 30.3645 39.2559 28.6905C33.2264 24.3531 31.2818 15.0989 22.7555 14.1722C19.7149 13.8428 17.4629 15.2029 17.4629 15.2029C17.4629 15.2029 25.6165 18.2222 31.5388 30.9709C35.9292 40.4259 35.0089 51.1184 33.8981 57.2247C39.8113 54.0711 45.7846 50.6398 50.4643 45.8212C55.3023 40.8412 58.9732 34.4565 60.1409 27.5603C61.995 16.6173 55.9145 4.16757 43.7683 3.72195Z" fill="#E03F3E"/>
<path d="M22.5355 45.4208C20.6419 44.494 19.1067 43.4239 16.9238 41.3798C19.626 46.3353 25.226 50.0514 31.5397 52.0064C31.5397 50.1083 31.1063 49.1815 29.3535 48.1798C27.2242 46.9605 24.7332 46.5 22.5355 45.4208Z" fill="#FBFDFD"/>
<path d="M18.1562 39.8847C20.8416 43.2179 25.0137 44.8557 29.6275 46.0428C29.6275 43.4807 26.9609 42.605 25.3179 42.408C21.6896 41.9714 18.1562 39.8847 18.1562 39.8847Z" fill="#FBFDFD"/>
<mask id="mask0_17_31" style="mask-type:luminance" maskUnits="userSpaceOnUse" x="2" y="13" width="30" height="46">
<path d="M2.48047 13.0613H31.7445V58.4906H2.48047V13.0613Z" fill="white"/>
</mask>
<g mask="url(#mask0_17_31)">
<path d="M22.269 49.0975C18.7957 46.6879 16.5411 44.4882 15.4445 40.4053C15.0893 39.0839 14.9762 37.4816 15.9676 36.5367C16.8065 35.7359 18.1357 35.7417 19.2646 36.0136C20.3935 36.2861 21.4895 36.7763 22.6513 36.7854C23.8132 36.7912 25.5363 36.2771 25.6738 35.1204C23.0065 32.1967 19.3718 30.1733 15.4839 29.4468C14.528 29.2672 13.5993 29.0974 12.7094 28.8487C11.3176 28.4664 10.0272 27.8955 8.88926 26.8131C7.32441 25.3276 6.33886 23.3462 5.72661 21.3015C4.94386 18.6917 4.7288 15.8759 5.06076 13.1466C2.86816 17.442 2.10672 22.6526 2.93726 27.5603C4.10493 34.4565 7.7752 40.8412 12.6138 45.8212C17.918 51.2824 24.8853 54.9623 31.5393 58.4776C32.5339 53.0223 27.9342 53.0223 22.269 49.0975Z" fill="#FBFDFD"/>
</g>
<path d="M49.9888 10.8435C48.1663 7.51297 45.1179 5.34555 40.9291 4.4007L39.4591 4.06939C36.414 4.68745 33.5601 6.12378 31.5393 8.56116C28.5768 4.98905 23.8248 3.55724 19.3091 3.72193C13.2041 3.94538 8.63286 7.20103 5.8293 11.7742L5.65363 13.2189C5.32749 15.9004 5.55095 18.6355 6.29882 21.1297C6.96532 23.3546 7.97476 25.121 9.30065 26.3797C10.1499 27.1876 11.1419 27.7418 12.4711 28.1538C12.1113 27.0785 11.8123 25.9857 11.616 24.8672C11.0425 21.6541 11.3324 18.1776 13.0497 15.4005C14.9459 12.3309 18.5684 10.4147 22.1734 10.5762C25.7752 10.7376 29.9234 12.9134 31.5393 16.1387C33.1552 12.9134 37.3033 10.7376 40.9052 10.5762C44.5096 10.4147 48.1327 12.3309 50.0288 15.4005C51.0499 17.05 51.564 18.9468 51.6951 20.8875C52.0471 17.9664 51.7907 14.1347 49.9888 10.8435Z" fill="#FBFDFD"/>
</g>
<defs>
<clipPath id="clip0_17_31">
<rect width="62" height="62" fill="white"/>
</clipPath>
</defs>
</svg>
